<?xml version="1.0" encoding="UTF-8" standalone="no"?>
<!-- Created with Inkscape (http://www.inkscape.org/) -->

<svg
   width="25mm"
   height="25mm"
   viewBox="0 0 25 25"
   version="1.1"
   id="svg5"
   inkscape:version="1.1 (c68e22c387, 2021-05-23)"
   sodipodi:docname="water.svg"
   xmlns:inkscape="http://www.inkscape.org/namespaces/inkscape"
   xmlns:sodipodi="http://sodipodi.sourceforge.net/DTD/sodipodi-0.dtd"
   xmlns="http://www.w3.org/2000/svg"
   xmlns:svg="http://www.w3.org/2000/svg">
  <sodipodi:namedview
     id="namedview7"
     pagecolor="#ffffff"
     bordercolor="#666666"
     borderopacity="1.0"
     inkscape:pageshadow="2"
     inkscape:pageopacity="0.0"
     inkscape:pagecheckerboard="0"
     inkscape:document-units="mm"
     showgrid="false"
     inkscape:zoom="1.0985947"
     inkscape:cx="257.14669"
     inkscape:cy="269.89024"
     inkscape:window-width="1920"
     inkscape:window-height="1057"
     inkscape:window-x="1912"
     inkscape:window-y="-8"
     inkscape:window-maximized="1"
     inkscape:current-layer="layer1"
     inkscape:object-nodes="false"
     inkscape:snap-nodes="true"
     inkscape:snap-others="false"
     inkscape:snap-bbox="true"
     inkscape:snap-bbox-midpoints="true" />
  <defs
     id="defs2" />
  <g
     inkscape:label="Layer 1"
     inkscape:groupmode="layer"
     id="layer1"
     transform="translate(-37.097939,-77.295784)">
    <rect
       style="fill:#0000ff;stroke-width:0.264583"
       id="rect4732"
       width="25"
       height="25"
       x="37.097939"
       y="77.295784" />
    <path
       style="fill:#ffffff;stroke-width:0.264583"
       id="path5121"
       d="m 39.919917,84.517635 c 0.677086,-1.08945 1.463867,-2.092101 2.417191,-2.95089 0.140891,-0.0864 0.392625,-0.421737 0.422673,-0.259215 0.0337,0.182285 -0.441885,0.207085 -0.398968,0.387424 0.04083,0.171556 0.350248,0.05415 0.517417,0.110299 0.609539,0.204744 1.112596,0.623282 1.613706,1.007821 0.562541,0.438889 1.040761,0.969178 1.554022,1.46132 0.156356,0.149923 0.449557,0.445013 0.671607,0.548905 0.06017,0.02815 0.131402,0.0197 0.197102,0.02955 0.333591,-0.198405 0.680639,-0.375754 1.000771,-0.595213 0.05843,-0.04006 0.08005,-0.116926 0.121675,-0.174252 0.06221,-0.08568 0.123273,-0.172345 0.189791,-0.25473 0.222682,-0.275797 0.465405,-0.493253 0.74702,-0.705755 -0.184998,0.120454 -0.45936,0.162396 -0.554994,0.361363 -0.05392,0.112172 0.252813,-0.0151 0.372967,0.01735 0.174727,0.04718 0.33744,0.133028 0.497411,0.217673 0.553536,0.292892 1.021753,0.707165 1.501785,1.102574 0.427536,0.217737 1.022075,1.157322 1.467469,1.273432 0.07421,0.01935 0.153364,0.0017 0.230046,0.0025 0.619727,-0.302356 0.581989,-0.268554 1.444538,-0.88866 0.216701,-0.155791 0.375114,-0.380296 0.57469,-0.557495 0.08932,-0.07931 0.384841,-0.278089 0.276332,-0.228151 -0.207594,0.09554 -0.385889,0.244914 -0.578833,0.36737 0.791725,-0.152251 1.483465,0.339811 2.076407,0.804325 0.289753,0.240972 0.555138,0.508584 0.821445,0.774552 0,0 0.841429,-0.515684 0.841429,-0.515684 v 0 c -0.268966,-0.268787 -0.537069,-0.53911 -0.828883,-0.783607 -0.614672,-0.486619 -1.314009,-0.977061 -2.136221,-0.89611 -0.909059,0.506678 -0.87492,0.391758 -1.383478,0.852325 -0.0968,0.08766 -0.188937,0.180328 -0.28342,0.270477 -0.09805,0.09355 -0.428727,0.264383 -0.294182,0.280629 0.198494,0.02397 0.351943,-0.198603 0.54507,-0.250334 0.10633,-0.02848 -0.18513,0.119143 -0.277695,0.178715 -0.06525,0.01528 -0.129136,0.05318 -0.195747,0.04584 -0.355405,-0.03916 -1.123344,-1.069236 -1.470322,-1.249031 -0.487473,-0.400507 -0.960505,-0.814408 -1.513721,-1.124616 -0.124719,-0.06993 -0.686266,-0.390247 -0.912125,-0.308082 -0.405784,0.147619 -0.7584,0.413082 -1.1376,0.619622 -0.365014,0.294406 -0.642106,0.619224 -0.931495,0.985624 -0.274363,0.347376 -0.311468,0.245111 0.59557,-0.204606 -0.05717,0.0064 -0.117285,0.03858 -0.171494,0.01933 -0.207858,-0.07382 -0.544077,-0.406361 -0.67121,-0.526396 -0.519873,-0.490847 -0.999363,-1.025012 -1.560932,-1.470907 -0.511813,-0.395978 -1.017703,-0.813983 -1.632118,-1.044662 -0.174426,-0.06549 -0.357702,-0.187348 -0.539446,-0.146336 -0.766468,0.172957 -1.146923,0.45983 -1.714036,0.835334 -0.94474,0.875428 -1.725367,1.888644 -2.416769,2.974161 0,0 0.905555,-0.393762 0.905555,-0.393762 z" />
    <path
       style="fill:#ffffff;stroke-width:0.264583"
       id="path5123"
       d="m 40.19339,89.158922 c 0.692061,-0.649225 1.430591,-1.257395 2.241897,-1.752178 -0.182932,0.120678 -0.423266,0.182396 -0.548795,0.362034 -0.05626,0.08052 0.197338,-0.01154 0.29468,0.0016 0.101995,0.01379 0.202587,0.04152 0.298596,0.07861 0.422929,0.163369 0.728291,0.457295 1.049168,0.764754 0.53335,0.540824 0.911668,1.206777 1.393471,1.788213 0.09253,0.111664 0.171855,0.244015 0.296178,0.318679 0.120811,0.07255 0.272996,0.07008 0.409494,0.10512 0.145227,-0.02038 0.29466,-0.02091 0.435682,-0.06115 1.106636,-0.315774 2.08529,-1.294843 3.094907,-1.875748 -0.148431,0.119798 -0.43581,0.168886 -0.445292,0.359394 -0.0071,0.142236 0.286394,-0.01746 0.427219,0.0037 0.154858,0.02331 0.306167,0.07118 0.451868,0.128593 0.552102,0.217535 1.009225,0.604834 1.469151,0.966863 0.450949,0.406258 0.881985,0.83535 1.306989,1.268585 0.04264,0.04347 0.564532,0.603944 0.642712,0.664133 0.10139,0.07806 0.223428,0.124785 0.335142,0.187177 0.113196,0.02492 0.223681,0.07452 0.339588,0.07477 0.604751,0.0013 1.106433,-0.400937 1.656982,-0.578002 0.122566,-0.03942 0.25192,-0.05331 0.377881,-0.07996 1.005319,0.01955 1.696173,0.785804 2.28909,1.510817 0.371885,0.485571 0.189577,0.246041 0.547058,0.718486 0,0 0.846066,-0.502726 0.846066,-0.502726 v 0 c -0.35969,-0.472914 -0.176115,-0.232753 -0.550848,-0.720388 -0.612409,-0.749274 -1.318193,-1.525783 -2.344565,-1.60032 -0.130618,0.02124 -0.26479,0.02674 -0.391854,0.06371 -0.647636,0.188435 -1.230048,0.745165 -1.943794,0.573297 -0.495216,-0.24887 -0.583023,-0.432484 -0.969274,-0.823104 -0.429276,-0.434132 -0.862611,-0.865734 -1.314413,-1.276456 -0.581813,-0.461904 -1.195044,-1.002025 -1.94936,-1.150926 -0.146057,-0.02883 -0.304396,-0.07657 -0.445648,-0.02954 -0.438277,0.145925 -0.834474,0.396455 -1.251711,0.594681 -0.2169,0.130214 -1.235057,0.745758 -1.332622,0.904027 -0.07376,0.119648 0.507576,-0.241631 0.379109,-0.184604 -0.658916,0.292494 -0.198607,0.158392 -0.851361,0.301353 -0.125764,-0.01789 -0.265448,0.0066 -0.377292,-0.05367 -0.124853,-0.06723 -0.202419,-0.199237 -0.29377,-0.307698 -0.489593,-0.581287 -0.867367,-1.254384 -1.401519,-1.800819 -0.39713,-0.391526 -0.81236,-0.786907 -1.379221,-0.906283 -0.105651,-0.02225 -0.221133,-0.0758 -0.32181,-0.03679 -0.40334,0.156264 -0.764969,0.404016 -1.147454,0.606023 -0.804329,0.510864 -1.545156,1.118273 -2.235534,1.77395 0,0 0.913209,-0.378263 0.913209,-0.378263 z" />
    <path
       style="fill:#ffffff;stroke-width:0.264583"
       id="path5125"
       d="m 39.591358,95.164739 c 0.565648,-0.93954 1.18358,-1.866896 1.971061,-2.635157 -0.16137,0.107673 -0.464991,0.12997 -0.48411,0.32302 -0.01491,0.150608 0.303331,0.04377 0.441715,0.105049 0.183654,0.08132 0.353292,0.194534 0.512211,0.317363 0.647431,0.500405 1.126821,1.189949 1.623622,1.828578 0.463986,0.581307 1.226791,2.21059 2.101746,2.159493 0.154934,-0.009 0.299602,-0.08114 0.449403,-0.12171 1.999496,-1.073021 -2.50467,1.354191 1.82996,-1.06434 0.124841,-0.06965 -0.450501,0.147907 -0.349285,0.248865 0.116806,0.116509 0.316266,-0.10465 0.480724,-0.117761 0.428149,-0.03413 0.625778,0.07928 1.024819,0.213303 0.738652,0.308849 1.211657,0.984368 1.842959,1.438811 0.348505,0.250871 0.521133,0.287439 0.915791,0.437611 0.598759,0.202529 1.241197,0.188576 1.844008,0.374307 0.351491,0.108298 0.604302,0.244571 0.935069,0.402866 0.954018,0.67004 1.789443,0.719749 2.917304,0.741469 0.568095,0.02639 1.116691,0.170966 1.644268,0.374304 0,0 0.819927,-0.550093 0.819927,-0.550093 v 0 c -0.534198,-0.213224 -1.092308,-0.363321 -1.669232,-0.39996 -0.665664,-0.0072 -1.423367,0.03102 -2.053194,-0.225967 -0.298671,-0.121866 -0.539029,-0.363232 -0.840272,-0.480049 -0.319641,-0.156156 -0.606294,-0.310314 -0.946113,-0.420596 -0.599122,-0.194433 -1.236414,-0.180552 -1.837515,-0.364917 -0.3729,-0.133639 -0.567999,-0.175375 -0.897312,-0.407156 -0.645508,-0.454329 -1.121878,-1.144666 -1.864204,-1.469341 -1.374415,-0.502773 -1.508759,-0.196765 -2.879936,0.558635 -0.112842,0.06217 0.44731,-0.252446 0.34512,-0.173992 -0.148408,0.113937 -0.323647,0.187829 -0.485471,0.281743 -0.307318,0.113267 -0.468216,0.240888 -0.798389,0.12155 C 45.559195,96.434102 44.901998,95.105065 44.48667,94.608684 43.872043,93.8151 43.25616,92.871068 42.330974,92.40303 42.17938,92.32634 42.011599,92.188967 41.84886,92.23773 c -0.436808,0.130884 -0.796038,0.445029 -1.194057,0.667544 -0.776701,0.788501 -1.399995,1.720503 -1.966408,2.667993 0,0 0.902963,-0.408528 0.902963,-0.408528 z" />
  </g>
</svg>
